# Blender 4.3.2
# www.blender.org
mtllib slitta.mtl
o STL_Machine
v -1.075000 -0.100000 1.000000
v -1.075000 0.000000 1.000000
v -1.075000 -0.100000 -1.000000
v -1.075000 -0.000000 -1.000000
v 0.925000 -0.100000 1.000000
v 0.925000 -0.100000 -1.000000
v -0.875000 -0.000000 -1.000000
v -0.875000 0.000000 1.000000
v -1.075000 1.500000 1.000000
v -1.075000 1.500000 -1.000000
v -0.875000 1.500000 1.000000
v -0.875000 1.500000 -1.000000
v 0.925000 -0.021200 -1.000000
v 0.925000 -0.021200 1.000000
v 0.875000 -0.000000 -1.000000
v 0.875000 0.000000 1.000000
v 1.460541 1.380993 -1.000000
v 1.510541 1.359793 -1.000000
v 1.510541 1.359793 1.000000
v 1.460541 1.380993 1.000000
vn -1.0000 -0.0000 -0.0000
vn -0.0000 -0.0000 -1.0000
vn -0.0000 -0.0000 1.0000
vn -0.0000 -1.0000 -0.0000
vn 1.0000 -0.0000 -0.0000
vn -0.0000 1.0000 -0.0000
vn 0.9800 -0.1992 -0.0000
vn 0.3904 0.9207 -0.0000
vn 0.9207 -0.3904 -0.0000
vn -0.9207 0.3904 -0.0000
vt 0.625000 0.000000
vt 0.375000 0.250000
vt 0.375000 0.000000
vt 0.625000 0.437500
vt 0.500000 0.500000
vt 0.375000 0.500000
vt 0.625000 0.875000
vt 0.625000 1.000000
vt 0.375000 1.000000
vt 0.125000 0.750000
vt 0.125000 0.500000
vt 0.750000 0.500000
vt 0.750000 0.750000
vt 0.687500 0.750000
vt 0.687500 0.500000
vt 0.875000 0.500000
vt 0.625000 0.250000
vt 0.625000 0.375000
vt 0.375000 0.750000
vt 0.625000 0.812500
vt 0.500000 0.750000
vt 0.875000 0.750000
s 1
usemtl STL
f 2/1/1 3/2/1 1/3/1
f 15/4/2 13/5/2 6/6/2
f 8/7/3 2/8/3 1/9/3
f 6/6/4 1/10/4 3/11/4
f 7/12/5 11/13/5 8/13/5
f 7/12/6 16/14/6 15/15/6
f 10/16/6 11/13/6 12/12/6
f 4/17/2 12/18/2 7/18/2
f 2/1/1 10/17/1 4/17/1
f 8/7/3 9/8/3 2/8/3
f 13/5/7 5/19/5 6/6/5
f 13/5/2 17/4/2 18/5/2
f 20/14/8 18/5/8 17/15/8
f 16/20/3 19/21/3 20/20/3
f 13/5/7 19/21/9 14/21/7
f 16/14/10 17/15/10 15/15/10
f 2/1/1 4/17/1 3/2/1
f 6/6/2 3/2/2 7/18/2
f 3/2/2 4/17/2 7/18/2
f 7/18/2 15/4/2 6/6/2
f 1/9/3 5/19/3 8/7/3
f 5/19/3 14/21/3 16/20/3
f 8/7/3 5/19/3 16/20/3
f 6/6/4 5/19/4 1/10/4
f 7/12/5 12/12/5 11/13/5
f 7/12/6 8/13/6 16/14/6
f 10/16/6 9/22/6 11/13/6
f 4/17/2 10/17/2 12/18/2
f 2/1/1 9/1/1 10/17/1
f 8/7/3 11/7/3 9/8/3
f 13/5/7 14/21/7 5/19/5
f 13/5/2 15/4/2 17/4/2
f 20/14/8 19/21/8 18/5/8
f 16/20/3 14/21/3 19/21/3
f 13/5/7 18/5/9 19/21/9
f 16/14/10 20/14/10 17/15/10
